<?xml version="1.0" encoding="UTF-8" standalone="no"?>
<!-- Created with Inkscape (http://www.inkscape.org/) -->

<svg
   version="1.1"
   id="svg1"
   width="296.22858"
   height="296.22858"
   viewBox="0 0 296.22858 296.22858"
   xmlns="http://www.w3.org/2000/svg"
   xmlns:svg="http://www.w3.org/2000/svg">
  <defs
     id="defs1" />
  <g
     id="g1">
    <path
       style="fill:#000000"
       d="m 145.50206,280.70117 c -8.65275,-17.30249 -13.25166,-24.81224 -23.15423,-37.80956 -3.15917,-4.14646 -8.36013,-9.58808 -17.00275,-17.78948 -2.55847,-2.42786 -4.56736,-4.4987 -4.4642,-4.60186 0.40489,-0.40488 5.62105,-1.74922 6.79985,-1.75249 1.68234,-0.005 4.22068,0.88881 6.05262,2.13049 0.82795,0.56118 2.21743,1.50677 3.08774,2.10131 1.49338,1.02018 1.63136,1.06132 2.45335,0.73133 0.47904,-0.19231 1.85841,-0.57452 3.06526,-0.84934 2.79093,-0.63555 6.69852,-2.10509 8.94789,-3.36505 2.04472,-1.14534 6.99921,-5.30916 8.67076,-7.28704 3.7901,-4.48464 5.8148,-10.33058 5.82685,-16.82391 0.01,-5.29355 -1.03337,-9.39259 -3.86286,-15.17842 -3.23297,-6.61089 -7.31357,-11.23643 -13.54835,-15.35763 -12.61654,-8.33957 -20.35475,-10.97324 -42.304212,-14.39803 -13.33699,-2.08099 -18.11184,-3.52531 -27.93706,-8.45054 -5.8281,-2.92153 -10.62853,-6.63045 -15.25733,-11.78814 -5.10512,-5.68844 -9.13885,-14.26348 -11.03176,-23.45171 -0.94408,-4.58259 -0.95344,-8.929924 -0.0324,-15.064284 1.82003,-12.12225 4.00681,-19.57785 9.15567,-31.21537 0.90106,-2.03657 1.8294,-4.16572 2.06299,-4.73143 0.23358,-0.56571 0.53848,-1.02857 0.67755,-1.02857 0.13907,0 0.33805,0.77143 0.44217,1.71428 0.41596,3.76673 2.11199,12.93503 3.1735,17.15517 3.60902,14.34798 8.95126,25.59637 17.9012,37.691934 6.22673,8.41524 10.60918,12.36937 21.94597,19.80111 7.370093,4.8314 9.824333,6.2298 18.677782,10.64241 8.42894,4.20104 14.1555,7.34936 19.47278,10.70565 7.67867,4.84682 14.86366,11.0406 18.06106,15.56944 1.89167,2.6794 4.23741,7.30902 4.75464,9.3839 0.43454,1.74316 1.03317,2.98456 1.29438,2.68424 0.0654,-0.0752 0.80329,-1.55614 1.63974,-3.291 4.1845,-8.6789 10.75323,-15.90886 20.50335,-22.56729 4.77438,-3.26046 12.55516,-7.65921 21.39429,-12.09493 11.67615,-5.85942 19.31371,-10.26402 25.50857,-14.71085 11.48937,-8.24737 24.21473,-25.67463 29.9411,-41.004064 2.10677,-5.6398 4.47952,-15.52617 6.1221,-25.50857 0.94545,-5.7457 0.9294,-5.67747 1.28384,-5.45841 0.4356,0.26922 3.26884,6.35911 5.00108,10.74958 2.57317,6.52182 4.35993,13.13863 5.97787,22.1374 0.83902,4.66653 0.88823,5.30548 0.89789,11.657139 0.01,6.418645 -0.0253,6.879895 -0.78061,10.285715 -2.12508,9.58157 -4.99259,14.84344 -11.81816,21.68627 -4.54943,4.56095 -8.33109,7.23453 -14.45897,10.22231 -9.07762,4.426 -15.41879,6.42316 -25.44452,8.01381 -16.70027,2.64961 -27.47587,5.46045 -34.98448,9.1258 -7.09323,3.46257 -11.17463,6.41075 -15.40505,11.12778 -3.18129,3.54722 -5.20664,6.37426 -6.95559,9.7088 -3.02117,5.76016 -4.10313,9.62721 -4.10601,14.67536 -0.003,5.28132 1.19548,9.82839 3.73314,14.16346 1.67867,2.86768 6.28681,7.52839 9.50154,9.60993 3.70047,2.39606 10.71567,5.35816 12.83236,5.41834 0.7177,0.0204 1.58783,-0.40971 6.98247,-3.4515 3.22259,-1.81707 3.9892,-2.00556 6.25739,-1.53853 2.14196,0.44104 5.19101,1.34734 5.4917,1.63236 0.126,0.11943 -0.79971,1.18531 -2.05714,2.36861 -5.94826,5.59762 -13.47685,13.21171 -16.37693,16.56292 -4.46914,5.16437 -9.84735,12.46045 -13.2432,17.96572 -3.57374,5.79368 -4.80303,7.97714 -8.95653,15.90857 -1.81701,3.46971 -4.41486,8.39259 -5.773,10.93972 l -2.46936,4.63115 z m 5.40357,-17.31686 c 1.46774,-2.47463 10.51979,-18.81925 10.51979,-18.99481 0,-0.0917 -0.66519,-0.46099 -1.4782,-0.82054 -2.22033,-0.98193 -6.1396,-3.49664 -8.11257,-5.20523 -0.96318,-0.83411 -1.99155,-1.51656 -2.28528,-1.51656 -0.29372,0 -1.34447,0.75811 -2.33499,1.68469 -1.94643,1.82079 -4.40995,3.5073 -7.0947,4.85698 -0.93186,0.46847 -1.77593,0.98384 -1.87569,1.14526 -0.0998,0.16143 0.2461,0.99733 0.7686,1.85757 0.5225,0.86024 2.11683,3.47721 3.54295,5.8155 1.42613,2.33828 3.61065,6.13371 4.85448,8.43428 1.24384,2.30057 2.34702,4.18286 2.45152,4.18286 0.1045,0 0.57434,-0.648 1.04409,-1.44 z m -13.7545,-29.58212 c 3.76945,-0.62366 7.06136,-2.09071 10.45492,-4.65929 1.02665,-0.77707 1.92815,-1.27176 2.11342,-1.15971 0.1777,0.10747 1.06366,0.77422 1.96881,1.48167 2.16553,1.69256 4.76235,3.08239 7.13142,3.81678 2.671,0.82799 9.37182,1.10407 10.92702,0.45022 1.67933,-0.70605 1.54784,-0.81727 -4.24792,-3.5929 -7.14844,-3.42343 -10.39594,-6.3318 -14.35903,-12.85956 -0.71585,-1.17909 -1.47314,-2.20965 -1.68287,-2.29014 -0.6043,-0.23189 -1.1972,0.45387 -1.1972,1.3847 0,2.00502 -3.115,6.2957 -6.85801,9.44638 -2.18614,1.84019 -7.5114,4.84825 -9.67828,5.46695 -0.78618,0.22448 -1.59576,0.56545 -1.79905,0.75772 -0.51578,0.4878 -0.033,1.30794 1.11219,1.88946 0.95301,0.48393 2.6063,0.44816 6.11458,-0.13228 z m -24.27428,-20.30195 c -3.0547,-0.81363 -4.7692,-1.69329 -6.31691,-3.24101 -2.12234,-2.12234 -3.51367,-5.69336 -2.76399,-7.09415 0.2441,-0.45609 0.68102,-0.5898 2.42644,-0.74251 4.79584,-0.41962 11.59166,-2.17392 14.89404,-3.84481 2.65482,-1.34325 4.52716,-4.19327 5.64199,-8.58804 0.77083,-3.03871 0.70362,-4.20463 -0.44108,-7.65132 -1.83285,-5.51873 -5.41266,-9.17651 -10.69764,-10.93061 -2.15172,-0.71417 -6.03891,-0.65987 -9.00524,0.12579 -2.32455,0.61567 -3.18411,0.96792 -12.077399,4.94938 -6.503653,2.91164 -12.104283,5.12408 -16.905933,6.67842 -12.15689,3.93532 -17.10803,4.77959 -23.75964,4.05153 -10.09298,-1.10475 -19.06988,-5.38949 -26.16239,-12.48752 -8.553651,-8.5603 -11.732181,-15.03859 -15.141831,-30.86109 -1.02496,-4.75636 -1.03421,-4.85487 -1.01633,-10.83429 0.0174,-5.80575 0.0617,-6.28727 1.17155,-12.71402 1.10515,-6.39976 1.65022,-8.54312 2.17255,-8.54312 0.40029,0 1.1973,1.0323 4.44713,5.76 5.845521,8.50377 10.382661,14.41763 13.985291,18.22889 8.66625,9.1681 18.17826,16.18607 26.0561,19.22422 3.12018,1.20332 10.56349,3.23595 14.54471,3.97189 2.46911,0.45643 4.15481,0.53298 11.81522,0.53655 4.91437,0.002 10.283523,0.13869 11.931433,0.30311 5.693709,0.5681 12.183809,2.46996 18.098409,5.30357 4.75978,2.28035 7.39866,4.0941 10.56849,7.26394 4.05589,4.05588 6.68661,8.34327 8.07007,13.15211 1.3267,4.61151 0.83713,11.02389 -1.27204,16.66116 -1.59918,4.2742 -4.81939,7.76062 -9.07436,9.82454 -4.35232,2.11114 -7.36877,2.51484 -11.18864,1.49739 z m 66.15945,-0.12055 c -4.19026,-1.23887 -7.17181,-3.21016 -9.75036,-6.44659 -3.58849,-4.50405 -5.4906,-11.05286 -4.81494,-16.57737 0.80354,-6.57013 3.71349,-12.93244 8.06421,-17.63162 6.02657,-6.50925 17.44356,-11.49666 29.92673,-13.07323 4.15368,-0.52459 6.05651,-0.56757 13.13491,-0.29669 5.32989,0.20397 6.02626,0.17412 9.32571,-0.39984 7.59106,-1.32049 15.97656,-4.03937 20.84572,-6.75892 12.66125,-7.07163 21.58682,-16.14708 34.93666,-35.52332 3.83954,-5.57279 4.03363,-5.7871 4.39069,-4.84797 0.43611,1.14705 1.93171,10.4161 2.25263,13.96075 0.42403,4.68365 0.42827,13.28812 0.008,16.43369 -1.76831,13.23798 -7.46769,24.90022 -16.32393,33.40258 -2.31741,2.2248 -4.97715,4.1546 -8.12129,5.89247 -2.05522,1.13599 -6.06433,2.92852 -7.26857,3.24987 -0.45257,0.12077 -1.81213,0.52112 -3.02125,0.88966 -2.75094,0.8385 -8.57072,1.82257 -10.77862,1.82257 -2.62548,0 -7.83844,-0.76457 -11.43441,-1.67704 -1.81029,-0.45936 -3.78515,-0.9413 -4.38857,-1.07098 -2.52569,-0.54277 -8.70193,-2.90484 -15.77143,-6.0317 -4.14857,-1.83492 -9.03581,-3.99303 -10.86052,-4.7958 -1.82471,-0.80277 -4.355,-1.79307 -5.62286,-2.20067 -7.46966,-2.40139 -14.53245,-0.009 -18.86172,6.38874 -1.73616,2.56574 -2.54627,4.93443 -2.71335,7.93358 -0.1233,2.21342 -0.0489,2.81971 0.60555,4.93715 0.41037,1.32762 1.11079,2.988 1.5565,3.68973 1.51075,2.37854 4.31627,4.58752 7.10538,5.59454 1.70662,0.61618 7.88116,1.73602 10.73605,1.94714 1.30863,0.0968 2.52891,0.2684 2.71174,0.3814 0.18283,0.11299 0.39169,0.82224 0.46412,1.57609 0.39815,4.14356 -3.51293,8.15098 -9.28223,9.51089 -2.45865,0.57954 -4.40732,0.5024 -7.05064,-0.27911 z m -45.13517,-70.0738 c -1.03321,-0.44716 -2.04936,-0.81302 -2.2581,-0.81302 -1.12164,0 -14.30449,-4.38054 -19.58904,-6.50925 -3.07937,-1.24043 -8.90019,-3.83825 -11.38286,-5.08014 -7.943689,-3.97364 -17.184342,-10.36145 -22.095732,-15.27417 -6.02248,-6.02412 -11.66677,-14.68178 -14.055,-21.558694 -1.14861,-3.30743 -2.76972,-10.24326 -3.23495,-13.8406 -0.42897,-3.31695 -0.42265,-10.84287 0.0121,-14.4 0.6197,-5.07047 3.41535,-14.35282 5.70003,-18.92571 4.57523,-9.15755 12.26286,-17.38643 22.97642,-24.594111 2.888883,-1.94353 12.719872,-7.08589 13.546552,-7.08589 0.44401,0 0.42023,0.0659 -0.9159,2.53974 -4.191019,7.759581 -7.276689,17.441901 -9.384409,29.446731 -1.355483,7.72038 -1.378173,11.26379 -0.12536,19.57924 2.37036,15.73321 7.533229,32.38342 13.209739,42.601294 2.46893,4.44417 6.9297,11.06475 10.30674,15.29706 3.31525,4.15486 11.2434,12.17165 14.48825,14.65021 4.03391,3.08129 4.95296,3.87159 5.04239,4.33596 0.11779,0.61163 -0.0332,0.58679 -2.24086,-0.36865 z m 29.44482,-0.0587 c 2.9e-4,-0.18857 0.64388,-0.77485 1.43019,-1.30285 3.97361,-2.66822 12.44889,-10.62282 16.8038,-15.77143 9.06024,-10.71153 17.37568,-26.330944 20.80838,-39.085714 3.71949,-13.82037 5.05712,-27.74941 3.75707,-39.12308 -1.19942,-10.49341 -3.66748,-19.08475 -7.968,-27.736771 -1.48019,-2.97794 -2.6425,-5.464 -2.5829,-5.52458 0.0596,-0.0606 0.7763,0.33332 1.59266,0.87536 0.81635,0.54203 3.23901,1.86454 5.38369,2.93893 4.81769,2.41344 7.89592,4.30533 12.06795,7.417011 8.52402,6.35759 13.28247,12.03224 17.81412,21.2441 3.23969,6.58559 4.37359,9.98844 5.39263,16.18332 0.39242,2.38552 0.49745,4.5962 0.50173,10.56 0.006,8.14899 -0.31418,10.98612 -1.92072,17.02798 -1.16612,4.38553 -4.78872,11.284974 -9.12769,17.384254 -1.83601,2.58087 -6.87966,7.8733 -10.15242,10.65319 -6.40608,5.44135 -16.94564,11.73712 -26.46318,15.8077 -4.21152,1.80124 -13.1801,4.81751 -19.93213,6.70349 -2.94171,0.82168 -5.69603,1.62851 -6.12071,1.79296 -0.99923,0.38693 -1.28512,0.37716 -1.28447,-0.0439 z"
       id="path1" />
  </g>
</svg>
