<?xml version="1.0" encoding="UTF-8" standalone="no"?>
<!-- Created with Inkscape (http://www.inkscape.org/) -->

<svg
   version="1.1"
   id="svg1"
   width="296.22858"
   height="296.22858"
   viewBox="0 0 296.22858 296.22858"
   xmlns="http://www.w3.org/2000/svg"
   xmlns:svg="http://www.w3.org/2000/svg">
  <defs
     id="defs1" />
  <g
     id="g1">
    <path
       style="fill:#000000"
       d="m 146.44177,287.32582 c -0.75295,-1.47085 -2.25921,-4.5855 -3.34724,-6.92143 -1.08804,-2.33593 -2.81368,-5.79193 -3.83477,-7.68 -1.02108,-1.88807 -3.54127,-6.68187 -5.60042,-10.65289 -5.23744,-10.10027 -16.32653,-28.31996 -21.50601,-35.33498 -0.95274,-1.29039 -1.68014,-2.39828 -1.61644,-2.46199 0.0637,-0.0637 1.09009,0.3011 2.28084,0.81067 2.32921,0.99677 9.54734,3.48047 10.07373,3.46629 0.39929,-0.0108 0.54683,-0.21879 4.07899,-5.75138 5.52303,-8.65097 10.69313,-19.20869 14.30478,-29.21143 2.43731,-6.75028 5.9361,-21.31077 5.9361,-24.70352 0,-1.37599 0.0895,-1.76505 0.4062,-1.76505 0.44806,0 0.4511,0.0112 1.11332,4.11428 1.51912,9.41227 4.67976,20.7078 8.21919,29.3738 1.3669,3.34671 5.73487,12.15623 7.77572,15.68241 2.03155,3.51011 7.07566,11.27509 7.6789,11.82101 0.49302,0.44618 0.76837,0.38879 5.58023,-1.16301 2.78389,-0.89779 5.51528,-1.82189 6.06974,-2.05357 0.55447,-0.23167 1.00813,-0.36665 1.00813,-0.29995 0,0.0667 -0.83315,1.22897 -1.85143,2.58283 -7.70988,10.25064 -25.32161,41.57174 -33.81848,60.14353 -0.67184,1.46844 -1.30265,2.67187 -1.4018,2.67428 -0.0992,0.002 -0.79633,-1.19904 -1.54928,-2.6699 z m 3.31396,-40.45714 c 1.77808,-2.32117 7.53161,-8.01574 10.00417,-9.90165 0.94286,-0.71916 1.71429,-1.41956 1.71429,-1.55646 0,-0.1369 -0.8492,-1.95026 -1.8871,-4.02968 -5.0747,-10.16709 -8.38122,-20.36631 -10.73384,-33.10937 -0.7445,-4.03262 -1.10723,-5.17182 -1.51645,-4.7626 -0.0869,0.0869 -0.33681,1.55979 -0.55542,3.27314 -1.53596,12.03829 -6.53723,27.70611 -11.62437,36.41649 -0.61127,1.04664 -1.1114,2.02549 -1.1114,2.17522 0,0.14973 1.0352,1.08057 2.30044,2.06854 2.28224,1.78211 8.76036,8.01114 10.65905,10.24923 0.54392,0.64114 1.04258,1.16571 1.10814,1.16571 0.0656,0 0.80468,-0.89486 1.64249,-1.98857 z M 26.799891,219.94738 c 0,-0.10338 0.47542,-0.83066 1.05648,-1.61618 1.19913,-1.62108 8.14939,-11.68074 10.66677,-15.43886 6.75059,-10.07775 14.31525,-23.40064 21.94652,-38.65223 3.92625,-7.84687 4.8465,-9.40593 5.09986,-8.64 0.0748,0.22628 0.40447,2.63314 0.73249,5.34857 0.7165,5.93131 0.93965,6.58591 2.37428,6.96484 1.8257,0.48223 10.21053,0.92214 13.94075,0.7314 13.28453,-0.6793 21.545689,-1.88591 32.914279,-4.80741 6.01624,-1.54606 13.79336,-3.87219 16.15637,-4.83236 0.8963,-0.3642 1.78963,-0.66219 1.98518,-0.66219 0.60973,0 0.11615,0.71236 -0.80503,1.16184 -3.97319,1.93871 -18.70064,16.81957 -24.63865,24.89531 -4.50966,6.13316 -9.094639,13.58969 -12.311939,20.02285 -1.09396,2.18743 -2.4049,4.62754 -2.91319,5.42247 -0.50829,0.79493 -0.92417,1.48969 -0.92417,1.54391 0,0.0542 0.95657,0.81412 2.12572,1.68866 3.98369,2.97988 7.474279,6.0247 7.474279,6.51978 0,0.13704 -0.27772,0.17156 -0.61714,0.0767 -0.33943,-0.0949 -4.134859,-0.3573 -8.434289,-0.58321 -4.29942,-0.22591 -9.91542,-0.5312 -12.48,-0.6784 -10.19368,-0.58513 -20.90979,-0.36033 -38.94857,0.81704 -12.94952,0.84521 -14.4,0.91748 -14.4,0.71747 z m 60.46627,-23.78048 c 6.27526,-8.46429 13.823799,-16.42396 20.722299,-21.85094 2.30135,-1.81044 3.00659,-2.533 2.47232,-2.533 -0.18574,0 -2.70028,0.79646 -5.58787,1.7699 -10.046289,3.38673 -19.789799,5.53422 -30.073019,6.62816 -8.76588,0.93253 -7.95428,0.72907 -7.95428,1.9941 0,1.60239 -0.72084,5.49814 -1.80328,9.74576 -0.82304,3.22973 -1.28777,4.6236 -2.49938,7.49637 -0.0962,0.22805 0.11797,0.34286 0.63957,0.34286 3.05283,0 13.57653,2.90149 16.69164,4.60206 l 1.37142,0.74866 1.37957,-2.27239 c 0.75876,-1.24981 2.84721,-4.25201 4.64101,-6.67154 z m 173.636599,23.58541 c -17.52255,-1.45766 -34.33846,-1.94507 -46.49143,-1.34754 -14.69623,0.72256 -18.35655,0.86945 -19.56297,0.78504 l -1.32297,-0.0926 2.41766,-1.78286 c 3.90527,-2.87985 7.22257,-5.73793 7.22257,-6.22273 0,-0.50598 -4.39257,-9.06816 -6.75943,-13.17577 -4.0441,-7.01841 -8.16153,-13.08776 -11.58805,-17.0815 -6.53596,-7.61792 -12.80953,-13.98229 -18.52051,-18.78857 -1.79253,-1.50857 -3.45074,-3.0352 -3.68491,-3.39251 l -0.42576,-0.64966 1.38121,0.69992 c 2.02076,1.02399 9.71826,3.53598 15.64563,5.10576 5.23699,1.38694 10.23026,2.40591 15.44896,3.15266 12.86175,1.8404 17.50515,2.10045 25.37143,1.42094 7.49026,-0.64703 7.79471,-0.6977 8.22691,-1.36918 0.43131,-0.6701 1.49565,-7.72044 1.54706,-10.24793 0.0192,-0.94286 0.13111,-1.71429 0.24872,-1.71429 0.46779,0 2.57543,3.84001 6.77453,12.34286 7.10223,14.38144 15.63919,28.72446 27.33567,45.92689 2.35319,3.46092 4.27854,6.39235 4.27854,6.51428 0,0.26947 -3.80816,0.22744 -7.54286,-0.0833 z m -41.25961,-16.9831 c 1.96774,-0.77561 4.73327,-1.52031 9.15558,-2.46542 2.10507,-0.44988 3.86392,-0.81797 3.90857,-0.81797 0.24708,0 -0.009,-1.12175 -0.70857,-3.10767 -1.51179,-4.28968 -3.32454,-11.79725 -3.32454,-13.76866 0,-1.47211 -0.22846,-1.7751 -1.33845,-1.7751 -1.34719,0 -12.13064,-1.25372 -15.37958,-1.78808 -9.66019,-1.58884 -15.10212,-3.06173 -22.7723,-6.16345 -5.39553,-2.18188 -5.62062,-1.83192 -1.14873,1.78601 3.74293,3.02819 10.73563,9.49058 13.00917,12.02259 2.75214,3.06503 6.14391,7.37212 9.10337,11.56007 1.49247,2.112 3.18965,4.48783 3.7715,5.27962 l 1.05791,1.43961 1.63762,-0.82667 c 0.90068,-0.45466 2.26348,-1.07336 3.02845,-1.37488 z M 125.8666,183.23439 c -0.17177,-2.14971 -0.38053,-5.14286 -0.46391,-6.65143 -0.0834,-1.50857 -0.21524,-3.25591 -0.29302,-3.88299 -0.13721,-1.10612 -0.0776,-1.21086 1.99726,-3.51152 2.33629,-2.59049 11.22654,-11.02293 15.40327,-14.61006 2.48888,-2.13755 3.47563,-3.36686 2.70253,-3.36686 -0.18436,0 -1.19867,0.32523 -2.25402,0.72273 -3.2215,1.21338 -10.05864,3.21103 -19.73879,5.76722 -1.95643,0.51662 -3.75586,1.11915 -3.99875,1.33897 -0.56611,0.51232 -0.68063,0.50411 -1.57524,-0.11295 -0.40875,-0.28193 -1.51694,-1.02504 -2.46263,-1.65135 -0.9457,-0.62632 -3.42867,-2.40136 -5.51771,-3.94454 -2.08904,-1.54319 -4.01534,-2.93297 -4.28068,-3.08842 -0.41513,-0.24321 -0.24332,-0.43021 1.23191,-1.34077 1.8143,-1.11986 7.4996,-5.28307 9.6385,-7.05806 l 1.27257,-1.05605 3.46347,0.82771 c 1.90492,0.45524 5.52884,1.45196 8.05316,2.21493 2.52431,0.76297 6.48725,1.93817 8.80652,2.61156 2.31926,0.6734 4.60269,1.38456 5.07428,1.58036 0.47159,0.1958 1.19687,0.44027 1.61172,0.54327 0.634,0.15741 0.75429,0.0997 0.75429,-0.36171 0,-0.6999 -1.2095,-1.91184 -7.13143,-7.14586 -6.14828,-5.43408 -8.89998,-8.06948 -11.44599,-10.96227 l -2.04776,-2.32666 0.1864,-1.37619 c 0.3856,-2.84699 1.27192,-10.21805 1.427,-11.86763 0.0886,-0.94286 0.28399,-1.71429 0.4341,-1.71429 0.15011,0 0.65778,0.23627 1.12816,0.52504 0.47038,0.28876 2.5502,1.27355 4.62183,2.1884 4.98707,2.20235 7.37713,3.42161 7.94864,4.0549 1.5242,1.68897 3.59327,9.59711 6.12314,23.40309 0.82946,4.52652 1.40728,4.82746 2.19568,1.14357 0.48125,-2.24872 4.62704,-18.59757 5.73861,-22.63014 0.76862,-2.7884 0.96474,-3.09412 2.15226,-3.35494 0.47844,-0.10508 1.79362,-0.62952 2.92264,-1.16542 1.12901,-0.53589 3.78389,-1.67291 5.89973,-2.52669 l 3.84699,-1.55233 0.0696,0.84869 c 0.23333,2.84691 0.93265,10.02066 1.19238,12.23155 l 0.3061,2.60571 -5.72116,5.66688 c -3.14664,3.11678 -7.38474,7.1282 -9.41799,8.91428 -2.03326,1.78608 -4.19326,3.70718 -4.8,4.26913 l -1.10318,1.02171 0.96374,0.007 c 0.53005,0.004 3.43062,-0.8039 6.44571,-1.79482 5.70222,-1.87406 12.50466,-3.9158 17.3655,-5.21222 l 2.83209,-0.75534 1.17272,0.56975 c 0.64499,0.31336 3.13512,2.03831 5.53362,3.83323 2.3985,1.79491 4.95759,3.66996 5.68686,4.16679 l 1.32594,0.90331 -1.46309,0.88561 c -0.8047,0.48708 -2.57394,1.67081 -3.93166,2.63051 -3.97026,2.80638 -5.53518,3.83147 -5.8492,3.83147 -0.16187,0 -0.62606,0.43495 -1.03154,0.96656 -0.7855,1.02983 -1.29715,1.06945 -2.33503,0.18079 -0.28443,-0.24353 -1.00663,-0.47556 -1.6049,-0.51563 -1.0126,-0.0678 -10.12926,-2.32631 -12.90504,-3.19701 -0.67886,-0.21295 -3.14743,-1.06274 -5.48572,-1.88843 -4.22022,-1.49024 -6.30857,-2.05088 -6.30857,-1.69361 0,0.53441 5.85504,6.38642 9.84192,9.83683 4.82383,4.17475 8.40228,7.68678 9.97421,9.78909 1.25419,1.67736 1.25923,1.60036 -0.93055,14.21442 -0.1431,0.8243 -0.30376,1.54231 -0.35703,1.59558 -0.0533,0.0533 -1.43598,-0.5797 -3.0727,-1.40659 -1.63672,-0.8269 -3.90156,-1.90038 -5.03299,-2.38553 -1.13143,-0.48514 -2.9001,-1.30453 -3.93038,-1.82085 -2.53547,-1.27065 -2.37123,-0.87726 -4.84617,-11.60705 -0.33057,-1.43315 -1.25907,-5.52816 -2.06333,-9.10003 -2.10507,-9.34894 -2.36863,-9.59396 -3.46389,-3.22005 -1.15882,6.7438 -4.02065,18.55202 -5.32099,21.95495 l -0.69765,1.82574 -2.25023,0.89792 c -1.23762,0.49386 -4.31516,1.86493 -6.83899,3.04684 -2.52382,1.1819 -4.69497,2.14891 -4.82477,2.14891 -0.12981,0 -0.37655,-1.75885 -0.54833,-3.90857 z M 64.595041,144.42464 c -0.23025,-0.26492 -1.42664,-2.64168 -2.65863,-5.28168 -5.09437,-10.91649 -13.99021,-27.00216 -21.69139,-39.222852 -2.6842,-4.259456 -11.67825,-17.338649 -13.08531,-19.028728 -0.36116,-0.4338 -0.60693,-0.83845 -0.54615,-0.899223 0.0608,-0.06077 2.07156,0.07146 4.46841,0.293844 12.28253,1.139606 32.0654,1.665176 48.35549,1.284656 15.1082,-0.352912 19.71171,-0.540602 21.532539,-0.877902 0.74099,-0.137265 1.39929,-0.19753 1.4629,-0.133923 0.11137,0.111375 -4.752069,4.103494 -8.316189,6.826271 l -1.7232,1.316424 0.42315,1.012745 c 0.8137,1.947457 4.27911,8.728556 6.33696,12.400118 3.479119,6.20736 7.772039,12.50608 12.805439,18.78857 4.30451,5.37272 15.99885,16.76763 19.44705,18.94912 1.364,0.86293 2.08209,1.75945 1.40926,1.75945 -0.22661,0 -1.61623,-0.53916 -3.08804,-1.19814 -4.42852,-1.9828 -9.86043,-3.48609 -17.94341,-4.96587 -1.15593,-0.21162 -2.57536,-0.50657 -3.15429,-0.65544 -1.77099,-0.45542 -8.17397,-1.36371 -13.814159,-1.95959 -5.79867,-0.61263 -14.29759,-0.76413 -22.53758,-0.40175 l -4.57914,0.20138 -0.8526,3.62854 c -0.46893,1.9957 -1.02805,4.71237 -1.24249,6.03706 -0.21444,1.32468 -0.43491,2.45353 -0.48994,2.50856 -0.055,0.055 -0.28843,-0.11671 -0.51868,-0.38164 z m 46.895569,-15.77311 c -0.0601,-0.18857 -1.45896,-1.36217 -3.10857,-2.60801 -4.76522,-3.59883 -7.77334,-6.35389 -12.450839,-11.40338 -5.95515,-6.42873 -10.42864,-12.19777 -13.38174,-17.257175 -0.68241,-1.169143 -1.28436,-2.125715 -1.33766,-2.125715 -0.0533,0 -1.1345,0.429512 -2.40267,0.95447 -4.82003,1.995259 -7.77135,2.908895 -12.05948,3.733233 -2.43637,0.468357 -4.46242,0.882457 -4.50233,0.920217 -0.0399,0.0378 0.24594,0.63854 0.63523,1.33507 0.6985,1.24975 3.33639,11.06154 3.97418,14.78221 0.17342,1.01172 0.45787,1.94926 0.6321,2.08344 0.17423,0.13417 2.35335,0.45593 4.84249,0.71501 14.51171,1.51044 27.862819,4.55864 36.617139,8.36009 2.10026,0.91201 2.70908,1.03428 2.54215,0.51054 z m 118.46893,15.87417 c -0.0796,-0.2075 -0.34351,-2.46007 -0.5864,-5.00572 -0.24289,-2.54564 -0.50536,-5.14154 -0.58327,-5.76865 l -0.14164,-1.14021 -2.79845,-0.15735 c -11.60802,-0.65272 -21.81325,-0.38771 -29.81686,0.77428 -4.94484,0.7179 -15.08126,2.67645 -19.19873,3.70956 -3.71803,0.93288 -9.85049,3.01267 -11.85601,4.02089 -3.14047,1.57879 -3.61731,1.13099 -0.96685,-0.90796 9.98737,-7.68314 22.24447,-21.08952 28.91626,-31.62758 4.26394,-6.73487 10.11824,-18.272797 9.83803,-19.389247 -0.0922,-0.367355 -2.09488,-2.163396 -5.01956,-4.501646 -2.67639,-2.139739 -4.92787,-3.949304 -5.0033,-4.021256 -0.0754,-0.07195 0.35657,-0.05953 0.96,0.02761 3.83981,0.554483 7.60549,0.739884 20.57143,1.012827 14.48428,0.304905 22.5561,0.180667 37.02857,-0.569926 6.32141,-0.327851 17.10768,-1.256824 17.83543,-1.536086 0.62765,-0.240852 0.61592,-0.220872 -2.19674,3.743443 -6.71421,9.46334 -10.9164,15.971729 -18.18103,28.158941 -5.66073,9.4965 -7.96587,13.70952 -12.88201,23.54391 -3.41546,6.83239 -5.17503,10.01143 -5.54126,10.01143 -0.12806,0 -0.29799,-0.16977 -0.37761,-0.37726 z m -42.35801,-16.62753 c 6.38634,-3.44475 26.07581,-7.86425 38.5579,-8.65471 2.99501,-0.18967 3.1019,-0.21795 2.93789,-0.77724 -0.44437,-1.51535 -0.4287,-2.38018 0.0776,-4.28326 0.301,-1.13143 0.99789,-3.78514 1.54865,-5.89714 0.55076,-2.112 1.24977,-4.60851 1.55336,-5.54779 0.30359,-0.93929 0.48374,-1.8182 0.40034,-1.95314 -0.16709,-0.27036 -0.59904,-0.37261 -4.85578,-1.149396 -3.13005,-0.571185 -8.62689,-2.202149 -11.45128,-3.397705 -0.95921,-0.406028 -1.7847,-0.697546 -1.83443,-0.647818 -0.0497,0.04973 -1.00417,1.51959 -2.12098,3.266359 -3.77944,5.91131 -9.54381,13.11001 -13.81571,17.25342 -3.2603,3.16224 -10.94899,9.96596 -13.06161,11.55822 -1.30959,0.98702 -1.32212,1.09314 -0.1529,1.2946 0.10156,0.0175 1.0992,-0.46148 2.21698,-1.0644 z m -40.20277,5.03222 c -0.10309,-0.10308 -0.18743,-0.77773 -0.18743,-1.49922 0,-2.59386 -2.62967,-14.35329 -4.53179,-20.26535 -3.33172,-10.35549 -10.35803,-25.63944 -14.61518,-31.791598 -1.10581,-1.598049 -2.75713,-4.039316 -3.6696,-5.425038 l -1.65903,-2.519495 -1.46849,0.64943 c -2.04359,0.903774 -10.02528,3.483058 -10.20923,3.299113 -0.083,-0.08303 0.50635,-1.105939 1.30974,-2.27312 8.11834,-11.794509 15.16171,-23.173563 19.81919,-32.019291 8.8656,-16.838031 13.2994,-25.690781 15.01316,-29.976052 0.19835,-0.495971 0.49672,-0.856403 0.66305,-0.800959 0.16633,0.05544 0.90137,1.448668 1.6334,3.096052 0.73204,1.647385 3.33537,7.075344 5.78518,12.062131 6.0779,12.372092 13.2058,24.815071 23.29879,40.672099 5.24585,8.24172 6.06124,9.607731 5.85691,9.812058 -0.0645,0.06446 -1.05265,-0.327034 -2.19597,-0.869993 -1.14331,-0.542959 -3.75353,-1.577576 -5.80048,-2.299148 l -3.72172,-1.31195 -0.61682,1.061859 c -0.33925,0.584023 -2.10813,3.436712 -3.93084,6.33931 -5.78562,9.213399 -8.46607,14.227184 -10.92161,20.428909 -4.06401,10.264063 -7.16205,20.771223 -8.40324,28.500033 -0.31141,1.93911 -0.61711,3.82353 -0.67935,4.18761 -0.13068,0.76459 -0.4972,1.21406 -0.76864,0.94261 z m 1.45636,-30.816 c 1.59172,-9.452534 5.3629,-21.196672 10.46193,-32.580292 1.06209,-2.371124 1.98961,-4.450993 2.06115,-4.621932 0.0715,-0.170939 -1.01931,-1.175204 -2.42411,-2.231701 -3.10298,-2.333626 -9.19618,-8.517219 -10.30389,-10.456747 l -0.80592,-1.411128 -1.04865,1.719472 c -0.63033,1.033564 -2.64398,3.313003 -5.0479,5.714214 -3.15507,3.1515 -4.38986,4.19367 -5.84967,4.937143 -1.01773,0.518321 -1.85087,1.083148 -1.85143,1.255171 -5.6e-4,0.172023 0.41616,1.159452 0.92605,2.194286 5.89695,11.968094 10.36406,25.691235 11.53674,35.441304 0.65706,5.4631 1.43031,5.47635 2.3457,0.0402 z"
       id="path1" />
  </g>
</svg>
