<?xml version="1.0" encoding="UTF-8" standalone="no"?>
<!-- Created with Inkscape (http://www.inkscape.org/) -->

<svg
   version="1.1"
   id="svg1"
   width="296.22858"
   height="296.22858"
   viewBox="0 0 296.22858 296.22858"
   xmlns="http://www.w3.org/2000/svg"
   xmlns:svg="http://www.w3.org/2000/svg">
  <defs
     id="defs1" />
  <g
     id="g1">
    <path
       style="fill:#000000"
       d="m 146.094,279.56572 c -0.84587,-1.92343 -2.28898,-5.21069 -3.20692,-7.30503 -2.69405,-6.14666 -5.4253,-10.77088 -9.9012,-16.76354 -5.21935,-6.98804 -13.07941,-12.69501 -27.26397,-19.79561 -7.41023,-3.70946 -9.001,-4.57059 -13.8582,-7.5019 -1.43314,-0.86489 -5.13389,-3.02086 -8.2239,-4.79102 -6.97138,-3.9937 -10.70365,-6.5139 -16.32197,-11.02136 -9.10045,-7.30109 -14.24166,-13.41309 -20.03307,-23.81583 -4.27731,-7.68306 -6.6416,-13.52751 -8.23866,-20.36571 -0.57254,-2.45143 -1.17308,-4.45526 -1.33454,-4.45295 -0.50676,0.007 -0.79909,0.34277 -2.44137,2.802 -1.9224,2.87869 -4.69191,5.51178 -7.07379,6.72534 -2.99717,1.52704 -5.68238,1.1434 -10.80127,-1.54318 -2.56613,-1.3468 -8.1021804,-4.95828 -9.6932204,-6.32344 -0.8005,-0.68685 -0.87636,-0.86022 -0.60134,-1.37411 0.42173,-0.78801 7.8466704,-6.69449 10.4743204,-8.33222 2.44387,-1.5232 4.70154,-2.38144 6.26455,-2.38144 2.35924,0 6.11692,2.09712 10.5258,5.87435 1.33526,1.14396 2.53751,2.07993 2.67168,2.07993 0.35986,0 0.2875,-3.19918 -0.1675,-7.40571 -0.58689,-5.42576 -0.51416,-9.87279 0.26116,-15.96954 1.27559,-10.03067 3.33126,-18.23788 5.85862,-23.39046 1.84656,-3.76461 7.80747,-13.63635 9.85461,-16.320003 0.71511,-0.937464 0.8423,-1.254572 0.52888,-1.318643 -0.22695,-0.0464 -2.62197,0.169603 -5.32226,0.48 -2.92804,0.336577 -6.64317,0.564358 -9.20476,0.564358 -3.9129,0 -4.4573,-0.06103 -6.11703,-0.68575 -7.53339,-2.835559 -11.12876,-8.23297 -15.89571,-23.862822 -0.82818,-2.715429 -1.57976,-5.173267 -1.67018,-5.461863 -0.16047,-0.512171 0.0578,-0.520254 9.12542,-0.338018 5.1094,0.102686 10.40067,0.318167 11.75839,0.478847 5.80817,0.687373 11.69943,3.714557 14.14419,7.26789 1.68233,2.445186 2.91568,6.82393 3.70079,13.138858 0.46024,3.701941 1.16332,6.171429 1.75704,6.171429 0.1564,0 2.31592,-1.533794 4.79894,-3.408431 11.24375,-8.488852 14.01525,-10.060215 23.74701,-13.463928 6.05229,-2.116806 11.81826,-3.319866 17.26917,-3.603183 7.82893,-0.406918 19.82237,3.034652 28.52572,8.185578 7.19217,4.256563 13.29731,11.216289 12.77873,14.567479 -0.33159,2.142791 -2.57033,6.185852 -4.54826,8.213912 -0.99311,1.01829 -1.93408,1.85143 -2.09104,1.85143 -0.78118,0 -3.03649,-1.943 -4.75132,-4.09336 -4.09054,-5.129459 -7.3682,-7.427636 -13.49611,-9.462982 -3.74792,-1.244845 -6.13385,-1.702384 -10.93201,-2.096381 -6.90946,-0.567367 -13.5122,0.01312 -20.38454,1.792118 -6.72007,1.739585 -9.45714,3.115424 -14.86117,7.470245 -7.15872,5.76884 -12.17963,12.80204 -15.88238,22.24773 -2.50144,6.38116 -4.00333,13.44458 -4.00333,18.8277 0,2.62434 0.90681,10.31005 1.35578,11.49092 0.13845,0.36415 0.38286,1.60489 0.54313,2.7572 0.8187,5.88624 4.59,15.8012 8.4608,22.24395 3.09771,5.15598 9.54541,12.6475 14.41816,16.75231 7.52489,6.339 24.16663,15.89379 35.56498,20.4195 8.14384,3.23351 15.60535,7.12124 19.94865,10.39402 4.58488,3.45481 7.13265,6.38579 12.23,14.06948 1.77259,2.67198 3.33236,4.92581 3.46615,5.0085 0.1338,0.0827 1.50013,-1.71416 3.03631,-3.99299 3.94671,-5.85472 6.67802,-9.13836 10.07446,-12.11168 3.8247,-3.34824 6.48034,-5.30549 9.53015,-7.02389 3.10266,-1.74817 13.55178,-6.71436 17.58342,-8.35692 4.04641,-1.64858 10.55117,-4.92397 15.00826,-7.55722 1.98772,-1.17434 4.66318,-2.72976 5.94546,-3.45648 7.3244,-4.15102 13.29649,-9.25777 19.54348,-16.71169 3.98384,-4.75351 4.9112,-6.09847 6.89508,-9.99998 3.32137,-6.5318 5.53472,-12.66427 7.19116,-19.92438 1.21252,-5.31442 1.58111,-9.46325 1.40117,-15.77143 -0.16136,-5.65689 -0.66631,-8.14894 -2.94558,-14.53715 -2.39339,-6.70807 -3.76575,-9.52465 -6.88266,-14.12571 -8.18229,-12.078381 -18.77365,-18.264117 -33.84265,-19.765336 -4.99202,-0.49732 -8.50211,-0.491401 -12.88878,0.02174 -8.87853,1.038578 -14.93593,3.37654 -19.38667,7.482637 -0.93229,0.860101 -2.72919,2.958809 -3.99311,4.663789 -1.26393,1.70499 -2.49267,3.17466 -2.73055,3.26595 -1.20307,0.46166 -4.38318,-2.38314 -6.04313,-5.40592 -1.64451,-2.994686 -2.37187,-5.315026 -2.00767,-6.404668 0.64139,-1.918986 6.2032,-8.124472 9.60991,-10.72208 5.37625,-4.099369 14.29581,-7.737099 23.31429,-9.508436 6.86409,-1.348191 15.09689,-0.442621 24.82286,2.7304 6.89644,2.249913 11.87517,4.537005 16.20546,7.444355 3.10491,2.084631 10.38518,7.589129 12.06649,9.123286 0.7853,0.716572 1.50308,1.302857 1.59507,1.302857 0.092,0 0.16726,-0.355578 0.16726,-0.790173 0,-1.08886 0.97061,-7.417046 1.64579,-10.730201 0.61045,-2.995532 1.6654,-6.183634 2.5412,-7.679626 2.09133,-3.572281 7.65198,-6.883009 13.36291,-7.956083 0.8273,-0.155448 5.70273,-0.463796 10.83428,-0.685218 5.13156,-0.221422 9.79296,-0.476846 10.35868,-0.567608 0.61999,-0.09947 1.02857,-0.0547 1.02857,0.112694 0,0.552751 -3.55009,10.972124 -5.0427,14.800132 -3.9837,10.216725 -6.49085,13.127887 -13.25722,15.39354 -2.26817,0.759474 -7.43482,0.769414 -13.39663,0.02577 -4.36157,-0.544037 -6.70345,-0.684808 -6.70345,-0.402948 0,0.08187 0.48877,0.81048 1.08616,1.619132 1.82246,2.466975 3.94953,5.881675 5.9925,9.620075 3.64945,6.67809 5.738,12.10436 7.30055,18.96759 1.73999,7.64258 1.90962,9.26915 1.92595,18.46721 0.008,4.60114 -0.0823,10.00114 -0.20095,12 -0.12426,2.09269 -0.11263,3.63428 0.0274,3.63428 0.29552,0 1.62944,-1.01447 4.71409,-3.58516 2.6783,-2.23203 6.22554,-4.09484 7.79759,-4.09484 2.75444,0 6.82763,1.6848 10.65493,4.40722 2.54108,1.80751 7.06227,5.94461 7.05838,6.45874 -0.003,0.39761 -5.00206,4.30427 -7.81947,6.11077 -3.09067,1.9817 -7.44731,3.64956 -9.53311,3.64956 -3.21263,0 -6.46094,-2.36558 -11.28027,-8.21486 -1.75622,-2.13154 -2.39772,-2.59932 -2.76023,-2.01277 -0.085,0.13755 -0.4005,1.44536 -0.70109,2.90624 -1.13248,5.50394 -3.6505,12.57216 -6.83918,19.19796 -6.05041,12.57223 -11.62481,19.04746 -25.38337,29.48539 -3.78698,2.873 -6.52402,4.6391 -14.98691,9.67045 -8.70931,5.17786 -12.86511,7.47286 -19.9728,11.02978 -11.26728,5.63852 -19.53792,11.18251 -23.5411,15.7801 -2.10694,2.41979 -5.94908,7.81503 -7.99627,11.22857 -1.14397,1.90751 -3.86967,7.13409 -6.0571,11.61463 -2.18743,4.48053 -4.04986,8.14748 -4.13874,8.14876 -0.0889,10e-4 -0.85368,-1.57139 -1.69954,-3.49482 z M 127.37861,193.62239 C 111.00198,182.14891 99.61825,175.99455 90.218,173.53234 c -5.65736,-1.48183 -13.33978,-1.09691 -18.98069,0.95102 l -1.56355,0.56764 -0.83645,-0.5956 c -0.46005,-0.32759 -0.83646,-0.65384 -0.83646,-0.725 0,-0.0712 0.26338,-0.64566 0.58529,-1.27665 0.83173,-1.63032 4.78181,-5.43213 6.99856,-6.73586 1.67751,-0.98659 4.9436,-2.15355 7.4333,-2.6559 0.49028,-0.0989 0.89143,-0.28112 0.89143,-0.40489 0,-0.12377 -1.59889,-2.52969 -3.55308,-5.34649 -4.25046,-6.12667 -5.63254,-8.47997 -7.01182,-11.93918 -1.18916,-2.98238 -1.45074,-4.82008 -1.21032,-8.50286 0.37248,-5.70573 3.87816,-12.88311 9.08743,-18.60526 2.33165,-2.5612 6.87615,-5.60794 10.50493,-7.04275 2.81735,-1.11397 7.70636,-2.0398 11.79428,-2.23347 8.1373,-0.38553 14.62516,1.79413 19.32264,6.49161 2.1965,2.1965 3.43644,3.90768 4.01047,5.53465 0.73515,2.08363 0.41812,2.17533 -4.46867,1.29255 -1.74125,-0.31456 -2.28768,-0.29918 -4.51046,0.12692 -6.38743,1.22446 -9.90594,3.35863 -13.04281,7.91118 -2.29177,3.32607 -3.63984,6.42686 -4.62525,10.63886 -1.23205,5.26623 -1.04924,8.96468 0.71047,14.37358 2.73623,8.41052 6.21307,13.46983 14.88956,21.6665 6.49473,6.13557 12.56921,13.13138 15.23782,17.54899 0.50493,0.83586 0.87292,1.65514 0.81776,1.82063 -0.0552,0.16549 -2.07286,-1.08109 -4.48377,-2.77017 z m 36.62224,2.03092 c 0,-0.36634 2.87032,-4.37861 4.77194,-6.67045 1.06395,-1.28229 5.58761,-6.03429 10.05258,-10.56 4.46497,-4.52571 8.68108,-8.97194 9.36914,-9.8805 3.8937,-5.14152 7.29052,-12.74413 8.18309,-18.31503 1.11142,-6.93687 -2.46892,-17.23403 -7.96858,-22.91784 -2.26371,-2.33951 -4.04432,-3.35289 -7.79624,-4.43702 -4.32598,-1.24999 -5.3418,-1.30291 -7.92121,-0.41261 -1.17863,0.4068 -2.29682,0.68061 -2.48487,0.60845 -0.18805,-0.0722 -0.49261,-0.6342 -0.6768,-1.24898 -0.30734,-1.02582 -0.27462,-1.23687 0.39786,-2.56569 0.89459,-1.76774 3.44885,-4.3235 6.01362,-6.01718 8.33192,-5.50208 20.19361,-5.75114 31.27503,-0.65669 5.31144,2.44183 8.45475,5.43065 12.23949,11.63796 1.97353,3.23677 3.08222,6.04922 3.83011,9.71593 0.70452,3.45409 0.73105,5.67826 0.10372,8.69491 -0.86171,4.14372 -2.03044,6.66516 -5.08541,10.97143 -3.4008,4.79376 -6.02918,8.86071 -6.02918,9.3291 0,0.38993 0.25777,0.56049 1.02857,0.68056 3.50474,0.54594 4.53648,0.84933 6.72605,1.9778 1.87202,0.96481 2.77097,1.64412 4.05014,3.06058 1.59072,1.76144 4.13687,6.07196 3.5866,6.07196 -0.14888,0 -1.85227,-0.37765 -3.78531,-0.83923 -6.33337,-1.51231 -13.54052,-1.59849 -18.46319,-0.22076 -3.31152,0.92681 -8.678,2.89785 -11.36291,4.17347 -2.36468,1.12347 -15.99222,9.17628 -19.49424,11.51956 -0.90514,0.60565 -2.68172,1.88836 -3.94795,2.85046 -2.89965,2.20319 -6.61205,4.14012 -6.61205,3.44981 z M 139.94933,79.61143 c -4.29067,-4.337143 -8.59741,-8.934857 -9.57053,-10.217143 -3.28403,-4.327378 -5.05223,-8.686725 -5.05223,-12.455849 0,-5.80311 3.74904,-15.11962 9.44678,-23.47558 1.08009,-1.584 3.69331,-5.410286 5.80716,-8.502858 2.11385,-3.092571 4.56974,-6.764571 5.45755,-8.16 0.8878,-1.395428 1.68233,-2.533935 1.76563,-2.530015 0.30829,0.01451 11.86855,16.452794 14.33174,20.379231 4.26022,6.790973 8.174,17.014404 8.174,21.351804 0,3.164522 -1.30302,7.609651 -3.20002,10.916622 -1.65856,2.8913 -4.17704,5.781853 -11.29881,12.968074 -4.14874,4.186285 -7.65946,7.611428 -7.80161,7.611428 -0.14214,0 -3.76899,-3.548571 -8.05966,-7.885714 z"
       id="path1" />
  </g>
</svg>
