<?xml version="1.0" encoding="UTF-8" standalone="no"?>
<!-- Created with Inkscape (http://www.inkscape.org/) -->

<svg
   version="1.1"
   id="svg1"
   width="296.22858"
   height="296.22858"
   viewBox="0 0 296.22858 296.22858"
   xmlns="http://www.w3.org/2000/svg"
   xmlns:svg="http://www.w3.org/2000/svg">
  <defs
     id="defs1" />
  <g
     id="g1">
    <path
       style="fill:#000000"
       d="m 141.39429,288.22506 c -0.75429,-0.0579 -2.99621,-0.23181 -4.98205,-0.38643 -6.59891,-0.51377 -17.30071,-2.54219 -24.77795,-4.69639 -4.65845,-1.34211 -11.06633,-3.5152 -11.637117,-3.94649 -0.83079,-0.62772 -0.33327,-0.76629 1.564627,-0.43579 4.10743,0.71528 23.52702,0.0548 32.01535,-1.08881 4.04004,-0.54433 11.15432,-1.9446 13.85142,-2.72632 3.57482,-1.03612 11.45934,-3.71773 12.47462,-4.24275 1.73491,-0.89716 1.47672,-1.19641 -1.91462,-2.21908 -15.07131,-4.54481 -19.55651,-6.18802 -27.33124,-10.01318 -8.89442,-4.37605 -18.16946,-10.89147 -23.84,-16.74684 -9.628747,-9.94262 -16.052257,-21.81255 -18.607007,-34.38369 -1.1105,-5.46445 -1.3564,-9.29641 -1.13527,-17.69143 0.10928,-4.14857 0.28041,-8.02736 0.38029,-8.61954 l 0.1816,-1.07669 1.81902,2.44812 c 1.92695,2.59337 5.85722,6.76894 7.91547,8.4095 3.351977,2.67175 7.921007,4.33107 12.068567,4.38291 6.89215,0.0862 16.46419,-3.7975 20.8918,-8.47639 3.89601,-4.11712 7.66735,-11.57205 9.54788,-18.87362 2.40098,-9.3223 1.3347,-18.76019 -3.17508,-28.10324 -4.17551,-8.65054 -10.0633,-15.59096 -17.39031,-20.49938 -6.40926,-4.2936 -12.74926,-6.69647 -19.885717,-7.53669 -4.3069,-0.50708 -14.63812,-0.43579 -18.1317,0.12512 -7.08545,1.13759 -11.62861,2.68216 -17.05398,5.79793 -8.88262,5.10127 -12.86454,8.48802 -17.94663,15.26418 -4.12242,5.4966 -7.52208,11.56494 -10.43824,18.63208 -5.17664,12.54533 -7.77057,28.45566 -8.07162,49.50857 -0.12449,8.70636 -0.0953,9.50623 0.44012,12.04369 0.31541,1.49489 0.56958,2.91432 0.56481,3.15429 -0.0147,0.73725 -1.2473,-0.88388 -1.79082,-2.3552 -0.26875,-0.72753 -1.53133,-3.66792 -2.80572,-6.53421 -3.15641,-7.09921 -4.71611,-11.0734 -6.1896,-15.77143 -3.59535,-11.46328 -5.34358,-20.41283 -5.93189,-30.36654 -0.52558,-8.89248 -0.24612,-23.04838 0.57013,-28.87917 1.526,-10.9009 5.66721,-26.4446 9.65578,-36.242211 4.27143,-10.492433 7.28387,-15.951658 13.92969,-25.243734 8.97414,-12.547509 12.55516,-16.684501 20.95967,-24.213776 6.60631,-5.918339 7.2708,-6.406122 6.83893,-5.020281 -0.22153,0.71089 -3.92598,7.049157 -6.93334,11.862857 -6.02315,9.640909 -10.2893,18.901944 -12.88781,27.977144 -1.56045,5.449782 -3.81439,17.050248 -3.39442,17.470217 0.1158,0.115797 2.18163,-1.733938 4.59073,-4.110522 7.17344,-7.076605 14.27467,-13.01453 20.66811,-17.282327 5.16311,-3.446514 14.67869,-8.229584 19.96962,-10.037861 3.78484,-1.293542 9.64763,-2.808673 14.073897,-3.637142 3.70086,-0.692694 14.73033,-0.693375 19.17362,-0.0012 7.96415,1.240684 17.25446,4.572499 25.08111,8.994929 3.657,2.066373 11.20338,7.155297 10.95355,7.386554 -0.1177,0.108947 -1.90789,0.465347 -3.9782,0.791999 -6.11022,0.964064 -11.06037,2.891731 -14.95922,5.825357 -2.98212,2.24384 -4.5249,4.488931 -6.46733,9.411407 -1.02019,2.58535 -2.10067,7.77696 -2.10067,10.09351 0,2.0387 1.23902,7.75342 2.34154,10.79984 1.80839,4.99685 4.27554,8.70224 8.73466,13.11848 3.8928,3.85537 7.0682,6.11329 11.7606,8.36258 7.18738,3.44524 11.08604,4.37873 19.15542,4.58655 6.6843,0.17215 8.44385,-0.11224 15.88206,-2.56695 11.87293,-3.91822 19.08416,-9.41673 26.01405,-19.8355 3.72534,-5.60088 6.79306,-13.24753 8.31197,-20.71851 0.83121,-4.08845 0.83563,-4.157345 0.70279,-10.971428 -0.21145,-10.84725 -1.32182,-16.027678 -5.37691,-25.086036 -4.10531,-9.170514 -9.9019,-16.670116 -20.32618,-26.297927 -3.91707,-3.617779 -7.0766,-6.023384 -15.28364,-11.636678 C 170.7136,19.932237 166.10454,17.344596 155.45143,12.468955 153.37715,11.51961 151.68,10.621972 151.68,10.474204 c 0,-0.147768 0.2919,-0.195407 0.64866,-0.105865 0.84014,0.21086 8.46403,1.150569 12.51706,1.542833 14.99367,1.45113 26.47723,4.012363 36.44792,8.129154 5.43831,2.245418 15.36302,7.36723 21.48819,11.089337 15.27969,9.285068 29.92086,22.566511 40.34507,36.5982 10.12335,13.626719 16.82918,27.425953 21.25989,43.748567 1.0956,4.03617 3.42009,13.80016 3.74519,15.73166 0.27298,1.6218 -0.36023,1.15572 -1.65219,-1.21611 -0.60984,-1.11955 -2.28966,-4.20723 -3.73293,-6.86152 -4.25479,-7.82486 -9.236,-15.47399 -13.91532,-21.368311 -3.13505,-3.949068 -11.17534,-11.84192 -14.84296,-14.570771 -3.2648,-2.429131 -4.34617,-3.117346 -4.56087,-2.90265 -0.0689,0.06892 0.36457,2.084635 0.96331,4.479365 5.47135,21.883217 6.37637,35.657147 3.3293,50.670567 -1.49467,7.3645 -4.83056,16.80298 -7.86566,22.25492 -4.83697,8.68861 -12.29134,16.85157 -19.70608,21.57928 -5.01522,3.19774 -18.07133,10.08654 -18.43238,9.72548 -0.059,-0.059 0.25753,-0.83178 0.7033,-1.7174 1.08852,-2.1626 2.39959,-5.9542 3.20419,-9.26653 2.09025,-8.60496 0.49985,-15.01655 -5.19728,-20.95244 -5.16664,-5.38317 -11.25269,-8.80554 -17.2074,-9.67623 -2.8865,-0.42206 -11.19732,-0.16453 -13.80565,0.42781 -7.85871,1.78466 -17.04674,7.01721 -22.49922,12.81324 -4.73383,5.03208 -8.07284,10.80194 -10.52468,18.18679 -3.95342,11.90757 -3.8294,19.73768 0.51204,32.32834 2.72885,7.91397 6.41619,13.87291 12.47486,20.16007 5.80135,6.02013 12.50186,10.31508 20.74766,13.29904 16.59897,6.00676 32.139,5.04709 55.28307,-3.41399 10.60748,-3.87792 16.54275,-6.92808 29.43863,-15.12864 2.03657,-1.29506 4.67762,-3.05437 5.869,-3.90958 1.19138,-0.8552 2.33309,-1.61898 2.53714,-1.69728 0.72705,-0.27899 0.35587,0.71067 -0.8597,2.29223 -0.67689,0.88068 -2.51087,3.39095 -4.07553,5.57838 -9.48709,13.26319 -16.49969,20.82052 -27.61651,29.76173 -11.42928,9.19251 -31.38937,19.62682 -46.62012,24.37106 -6.58233,2.05034 -18.98689,4.50205 -27.29143,5.39404 -2.73502,0.29377 -18.79076,0.57601 -21.39428,0.37608 z"
       id="path1" />
  </g>
</svg>
