<?xml version="1.0" encoding="UTF-8" standalone="no"?>
<!-- Created with Inkscape (http://www.inkscape.org/) -->

<svg
   version="1.1"
   id="svg1"
   width="296.22858"
   height="296.22858"
   viewBox="0 0 296.22858 296.22858"
   xmlns="http://www.w3.org/2000/svg"
   xmlns:svg="http://www.w3.org/2000/svg">
  <defs
     id="defs1" />
  <g
     id="g1">
    <path
       style="fill:#000000"
       d="m 144.05131,275.81683 c -1.22595,-0.8613 -3.81795,-2.94121 -5.76,-4.62203 -1.94206,-1.68082 -5.81444,-4.94359 -8.6053,-7.25061 -12.0953,-9.99838 -10.99155,-9.03638 -19.33714,-16.85365 -2.26286,-2.1196 -5.41029,-5.01632 -6.99429,-6.43714 -7.63322,-6.84688 -7.06169,-6.27217 -27.527,-27.68077 -2.39243,-2.5027 -5.41538,-5.84636 -6.71767,-7.43036 -1.30229,-1.584 -4.5316,-5.472 -7.17624,-8.64 -10.17115,-12.18395 -17.72575,-22.55308 -24.69192,-33.89106 -1.24562,-2.02735 -3.08995,-4.92037 -4.0985,-6.42894 -1.00856,-1.50857 -2.1573,-3.29936 -2.55276,-3.97953 l -0.71903,-1.23667 1.66239,-2.74047 c 4.10167,-6.76166 11.88231,-17.43104 20.12631,-27.59864 1.5132,-1.8663 3.03361,-3.79441 3.37867,-4.28469 0.34507,-0.49029 0.74921,-0.89143 0.89809,-0.89143 0.36856,0 1.06391,1.63238 4.43983,10.42286 3.5789,9.319 4.39795,11.28625 8.27927,19.88571 4.28755,9.4995 7.02722,15.14015 9.92496,20.43429 1.36243,2.48914 3.25416,5.94514 4.20385,7.68 0.94968,1.73485 3.28923,5.68457 5.19898,8.77714 1.90976,3.09257 4.56185,7.51467 5.89353,9.82688 2.97928,5.17293 5.59647,9.11024 11.24432,16.91598 2.40136,3.31886 5.94901,8.256 7.88367,10.97143 5.68923,7.98522 7.99486,11.05368 10.92534,14.53999 1.52035,1.80872 4.57898,5.50301 6.79695,8.20954 2.21797,2.70653 5.26696,6.41715 6.77554,8.24581 1.50857,1.82866 4.2743,5.26489 6.14606,7.63606 1.87177,2.37117 3.49425,4.27656 3.60552,4.23419 0.11126,-0.0424 0.93444,-1.06716 1.82927,-2.27734 0.89484,-1.21017 4.14779,-5.22636 7.22878,-8.92488 8.81176,-10.5779 8.96652,-10.76772 12.81787,-15.72196 3.25494,-4.18703 5.75743,-7.80652 12.53891,-18.1357 4.81506,-7.33404 7.70887,-12.59399 10.63851,-19.33714 1.96247,-4.51702 5.44778,-13.75873 5.25972,-13.94679 -0.0935,-0.0935 -0.68112,0.1242 -1.30585,0.48375 -1.63412,0.94048 -13.73707,10.67263 -17.61594,14.16521 -4.72855,4.25766 -10.19901,8.91184 -13.99138,11.90365 -4.89206,3.85936 -8.91184,7.47308 -12.94969,11.64155 l -3.61084,3.72765 -2.20505,-1.66155 c -2.35529,-1.77477 -11.4105,-11.19915 -16.19053,-16.85061 -8.51297,-10.06495 -11.83898,-14.45126 -17.99051,-23.72572 -5.27345,-7.95061 -14.11343,-22.89585 -14.11343,-23.86078 0,-0.80292 2.94195,-4.59847 5.75648,-7.4267 2.92658,-2.94085 9.60197,-9.13974 15.5136,-14.40624 2.82534,-2.51701 11.71701,-9.71175 16.66359,-13.48342 4.23284,-3.22747 4.37239,-3.24137 7.06257,-0.7036 3.72827,3.51707 7.11805,8.49462 7.11805,10.45215 0,1.43711 -1.75507,3.30544 -11.38358,12.11823 -6.21523,5.68867 -15.65423,15.117 -15.89566,15.87767 -0.27178,0.85631 3.75622,8.56058 7.09817,13.57652 3.14773,4.72444 6.52188,8.94538 10.30678,12.89347 2.78756,2.90773 6.78583,6.20841 7.52055,6.20841 1.14255,0 8.08214,-4.0022 12.9944,-7.49412 10.77667,-7.6607 32.90621,-27.61168 44.01623,-39.68302 l 2.65064,-2.88 0.55994,0.68572 c 0.69846,0.85536 7.24115,14.03203 9.2611,18.65142 3.30067,7.54826 6.719,18.16294 9.13414,28.36356 0.5574,2.35423 0.56128,2.48959 0.10611,3.70286 -1.30326,3.47392 -3.40257,6.93312 -7.33929,12.09359 -6.09325,7.98733 -19.7996,22.74078 -27.61239,29.72182 -2.03657,1.81976 -5.24571,4.73751 -7.13143,6.48389 -7.90761,7.32333 -16.31901,14.5723 -30.74216,26.49369 -3.95121,3.26585 -6.34269,5.05593 -6.73059,5.03801 -0.13284,-0.006 -1.24458,-0.71585 -2.47052,-1.57714 z m 92.94653,-90.0917 c -0.61995,-0.77195 -1.80491,-3.48982 -4.8731,-11.17715 -1.77622,-4.45028 -4.27268,-10.37485 -5.54769,-13.16571 -1.27502,-2.79086 -3.90075,-8.61554 -5.83496,-12.94374 -1.93421,-4.3282 -3.8195,-8.40134 -4.18954,-9.05143 -0.37003,-0.65008 -2.37299,-4.26769 -4.45101,-8.03912 -2.07803,-3.77143 -5.21923,-9.20228 -6.98046,-12.06857 -1.76123,-2.86629 -4.47684,-7.37143 -6.03468,-10.01143 -4.36649,-7.39965 -10.01291,-15.714513 -17.41538,-25.645709 -2.58625,-3.469714 -5.61762,-7.542857 -6.7364,-9.051429 -1.11878,-1.508572 -3.70368,-4.831159 -5.74423,-7.383527 -2.04055,-2.552369 -5.31718,-6.687226 -7.2814,-9.188572 -6.45987,-8.226343 -15.21128,-18.103993 -16.0522,-18.117993 -0.61773,-0.01028 -6.10842,6.22548 -14.00155,15.901521 -4.18434,5.129508 -14.3872,18.702122 -16.49497,21.942857 -3.22666,4.961047 -7.70125,12.29929 -9.65343,15.831437 -2.58093,4.669781 -10.58083,22.271055 -10.58083,23.279805 0,1.24586 2.70361,-0.32581 7.43452,-4.32185 2.20327,-1.86102 5.53584,-4.67175 7.40572,-6.24606 1.86987,-1.5743 4.38719,-3.73692 5.59405,-4.80582 2.45028,-2.170183 6.42805,-5.560299 10.14857,-8.649278 5.40346,-4.48625 11.4654,-9.928134 15.70315,-14.096929 l 4.45744,-4.384909 1.87249,2.039659 c 1.02987,1.121813 3.14487,3.520802 4.7,5.331088 1.55513,1.810286 3.78395,4.278857 4.95294,5.485715 3.41405,3.524651 9.7505,10.740099 12.08158,13.757544 2.50862,3.24725 11.85624,16.5384 14.43739,20.52817 10.16981,15.71976 10.86879,16.88087 11.33692,18.83225 0.32304,1.34658 0.31328,1.38825 -0.65242,2.78738 -1.76142,2.55197 -5.27996,6.36349 -8.55584,9.26823 -1.76733,1.5671 -5.08399,4.51557 -7.37036,6.55214 -6.22551,5.54535 -7.73252,6.84138 -10.58615,9.10411 -1.43314,1.13638 -3.71657,3.02285 -5.07428,4.19214 -4.4953,3.87147 -8.25008,6.45232 -9.38725,6.45232 -0.73689,0 -3.19104,-1.57279 -4.36166,-2.79525 -2.03826,-2.12853 -6.13681,-8.11418 -6.13681,-8.96238 0,-0.5349 2.69152,-3.47641 7.44291,-8.13424 2.61955,-2.56795 7.14895,-7.01138 10.06535,-9.87428 6.91913,-6.79221 9.91696,-10.35492 9.91907,-11.78814 4.5e-4,-0.30171 -0.35127,-1.28914 -0.78159,-2.19428 -0.82734,-1.74024 -7.01928,-11.20071 -9.60441,-14.67429 -1.94166,-2.60895 -7.22887,-8.06391 -9.9099,-10.22429 -1.13143,-0.91172 -2.69377,-2.27049 -3.47186,-3.01949 l -1.41472,-1.36184 -2.28814,1.49371 c -1.25847,0.82153 -3.86937,2.47237 -5.80199,3.66852 -5.63192,3.48575 -11.86664,8.33769 -23.229,18.07712 -6.08234,5.21357 -18.34427,17.18205 -22.06576,21.5377 -0.58002,0.67886 -2.09875,2.31178 -3.37496,3.62872 l -2.32037,2.39443 -0.50683,-0.61157 c -1.40322,-1.69321 -5.86353,-10.33595 -9.65806,-18.71444 -3.8421,-8.4835 -5.2115,-12.40484 -7.8065,-22.35428 -1.1152,-4.27581 -1.25496,-5.14447 -1.27972,-7.95429 -0.0258,-2.92726 0.0273,-3.26657 0.73836,-4.71443 3.36462,-6.851414 16.6658,-22.006199 34.71244,-39.549864 10.62035,-10.324341 14.34845,-13.744363 21.57283,-19.790111 6.65702,-5.570953 9.45826,-7.958441 16.84377,-14.355888 2.50278,-2.167949 4.70477,-4.001715 4.89331,-4.075037 0.43405,-0.1688 5.58981,3.528633 9.53149,6.835464 24.7207,20.739203 46.36839,40.820997 59.20573,54.923048 2.73742,3.007105 7.06142,7.759106 9.60889,10.56 9.86919,10.850968 19.05924,22.968808 27.76977,36.616708 7.91598,12.40299 9.17584,14.41051 10.00542,15.9431 l 0.89939,1.66157 -1.87902,3.27558 c -2.16916,3.78138 -6.06404,9.79902 -8.77745,13.56129 -2.33677,3.24004 -14.4482,18.37714 -14.70384,18.37714 -0.10309,0 -0.31134,-0.15428 -0.46278,-0.34285 z"
       id="path1" />
  </g>
</svg>
