<?xml version="1.0" encoding="UTF-8" standalone="no"?>
<!-- Created with Inkscape (http://www.inkscape.org/) -->

<svg
   version="1.1"
   id="svg1"
   width="296.22858"
   height="296.22858"
   viewBox="0 0 296.22858 296.22858"
   xmlns="http://www.w3.org/2000/svg"
   xmlns:svg="http://www.w3.org/2000/svg">
  <defs
     id="defs1" />
  <g
     id="g1">
    <path
       style="fill:#000000"
       d="m 135.43025,276.23674 c -9.40106,-0.73712 -22.46741,-3.43525 -29.58739,-6.10964 -6.530432,-2.45294 -14.892992,-7.55758 -21.203792,-12.94313 -3.16599,-2.70181 -11.60883,-10.79524 -11.60883,-11.12839 0,-0.57399 0.30449,-0.45938 2.76615,1.04113 1.9873,1.21137 10.83149,5.56615 14.11941,6.95224 10.318902,4.35015 22.580672,7.846 33.171592,9.45729 9.85112,1.49872 15.95715,2.03128 23.45143,2.04539 6.72873,0.0127 7.59451,-0.0426 11.65714,-0.74342 5.35489,-0.92381 8.14574,-1.57387 11.92083,-2.77669 10.79357,-3.43902 18.80722,-8.43668 27.26028,-17.00069 9.94409,-10.0746 15.01446,-19.87422 18.10827,-34.9982 2.51233,-12.28151 1.9555,-22.55705 -1.91439,-35.3273 -2.92069,-9.63798 -8.21517,-18.50113 -15.57944,-26.08051 -8.56448,-8.81465 -17.835,-14.59439 -28.82412,-17.97048 -3.67305,-1.12844 -4.11501,-1.22316 -12.34286,-2.64532 -0.75428,-0.13037 -3.28457,-0.41638 -5.62286,-0.63558 -6.82426,-0.63971 -10.88123,-0.17557 -22.49142,2.57315 -9.41013,2.22786 -12.37547,2.0418 -16.94803,-1.06336 -4.42572,-3.00545 -7.74086,-8.88246 -7.73577,-13.71378 0.004,-3.74231 1.77267,-8.84133 4.07887,-11.75889 3.86964,-4.895471 13.38083,-8.51479 28.14778,-10.711154 4.33007,-0.644034 5.76344,-0.733609 11.65715,-0.728492 7.22182,0.0063 11.57852,0.463138 18.37714,1.927129 11.52953,2.482732 22.83292,7.511677 33.64829,14.970307 10.77003,7.42736 21.52278,20.04549 27.65751,32.45552 6.47591,13.1002 8.95294,23.15965 9.35433,37.98876 0.19137,7.07005 -0.15501,11.30047 -1.53695,18.77137 -1.51675,8.19969 -3.44886,13.82572 -7.82416,22.78291 -4.3972,9.00201 -9.26566,15.58754 -17.44922,23.60343 -4.60169,4.50741 -8.50546,7.7719 -12.23424,10.23077 -3.2049,2.11341 -9.34798,5.7664 -11.72985,6.97517 -2.156,1.09414 -3.20824,1.81998 -2.65779,1.83334 0.75041,0.0182 7.8015,-3.18225 12.80636,-5.81277 8.00603,-4.20791 14.30956,-8.53542 20.57143,-14.12274 9.93479,-8.86459 14.88484,-14.7495 20.13305,-23.93535 9.06184,-15.86083 12.95769,-27.74126 14.69701,-44.81874 1.58754,-15.58729 -1.33487,-35.24453 -7.23205,-48.64545 -1.45167,-3.2988 -5.4845,-11.37775 -6.90752,-13.83778 -5.24665,-9.07012 -13.46705,-18.826865 -21.3762,-25.371293 -3.36214,-2.782005 -10.38629,-7.964226 -14.45587,-10.665137 -11.07837,-7.352522 -24.268,-11.834428 -41.63556,-14.147979 -4.09328,-0.54527 -5.83552,-0.620848 -14.26286,-0.61872 -9.56083,0.0024 -9.61989,0.006 -14.47723,0.87004 -9.36554,1.666044 -15.98942,3.628964 -24.47134,7.251833 -7.909452,3.378352 -12.797602,6.299705 -21.614472,12.917665 -7.69129,5.773104 -12.38599,10.406637 -17.68416,17.453771 -6.55497,8.71881 -8.98818,10.25822 -16.24423,10.27716 -3.11675,0.008 -4.02847,-0.091 -5.76,-0.62648 -3.4635,-1.07105 -5.50259,-2.3128 -7.90205,-4.81212 -2.35423,-2.45223 -3.58215,-4.58736 -4.3182,-7.508568 -1.39726,-5.545379 3.16515,-15.110116 13.16779,-27.605271 10.92982,-13.653366 20.44074,-21.890885 35.94389,-31.131427 3.70552,-2.208651 12.74882,-6.743383 17.23161,-8.640734 9.697472,-4.104474 22.573442,-7.115905 37.625542,-8.799859 11.04745,-1.235934 28.92125,0.373937 43.06285,3.878618 19.14552,4.744791 40.86777,16.782872 55.03839,30.50128 11.97439,11.592271 18.79935,21.05936 26.92837,37.353052 6.86705,13.764209 9.15407,20.213699 11.13663,31.405719 1.74474,9.84945 1.78607,10.41216 1.79305,24.41143 0.007,14.07231 -0.0617,15.05497 -1.6687,23.86223 -1.71558,9.40243 -3.65514,16.46434 -6.3219,23.01791 -1.74409,4.28613 -7.96247,16.46967 -10.30716,20.1946 -8.01418,12.73192 -13.58276,19.02759 -27.91296,31.55757 -4.07092,3.55951 -10.59182,8.15392 -15.90857,11.20864 -5.06111,2.90784 -18.63797,9.59782 -21.87955,10.78112 -4.52648,1.65234 -11.85253,3.66012 -17.70121,4.85119 -9.09036,1.85124 -10.64257,1.98234 -24.46496,2.06628 -6.78857,0.0412 -12.96,0.0266 -13.71428,-0.0326 z m 47.52886,-12.40173 c 0.0786,-0.23606 -0.0533,-0.33491 -0.36597,-0.27429 -0.26888,0.0521 -0.54416,0.26084 -0.61175,0.46382 -0.0786,0.23606 0.0533,0.3349 0.36597,0.27428 0.26887,-0.0521 0.54416,-0.26084 0.61175,-0.46381 z m -40.80886,-7.98433 c -1.88572,-0.11986 -3.984,-0.36351 -4.66286,-0.54145 -9.09508,-2.38389 -16.92748,-6.98681 -23.46819,-13.79172 -3.22397,-3.35418 -5.31262,-6.37384 -7.37429,-10.66135 -5.39267,-11.21473 -6.41506,-23.92868 -2.73051,-33.95541 2.78081,-7.5674 6.12172,-12.93567 11.20434,-18.00346 7.64406,-7.62176 14.87278,-11.36373 25.24865,-13.07004 1.34516,-0.22121 4.3171,-0.35109 7.68,-0.33563 4.83682,0.0222 5.90749,0.11286 9.05143,0.76623 8.19949,1.70398 13.85815,4.43657 20.29714,9.80154 5.15139,4.29214 8.79788,9.69873 11.20447,16.61268 2.42167,6.95727 2.68641,11.93768 0.90029,16.93628 -1.61832,4.52897 -3.95219,7.42666 -7.91526,9.82743 -7.20596,4.36526 -15.76414,1.87336 -20.68581,-6.02314 -0.74312,-1.19228 -2.02305,-3.99551 -2.97481,-6.51526 -2.91014,-7.70451 -4.44361,-9.84432 -8.46019,-11.80537 -2.72274,-1.32935 -4.99516,-1.79081 -8.81869,-1.79081 -4.4604,0 -7.75903,1.14898 -11.65411,4.05936 -4.61968,3.45179 -8.41379,7.78237 -10.04009,11.45973 -2.0859,4.7166 -2.69787,10.8178 -1.55277,15.4808 1.74592,7.10958 4.51055,11.8897 9.84334,17.01941 4.04636,3.89227 9.1083,6.8953 13.81016,8.19297 4.91593,1.35676 14.10012,1.44465 19.4749,0.18638 7.35917,-1.72284 13.39629,-5.18426 21.53891,-12.34947 2.98976,-2.63089 4.08095,-3.44434 4.25108,-3.16907 0.32925,0.53274 0.0783,0.88632 -3.00911,4.23989 -6.23826,6.77604 -10.64191,10.28175 -16.69315,13.28926 -3.04689,1.51433 -6.62034,2.8296 -9.79059,3.60361 -2.588,0.63186 -9.30909,0.87763 -14.67428,0.53661 z M 57.395958,219.11407 c -3.08637,-1.00216 -6.08788,-3.64691 -7.81715,-6.88798 -1.07136,-2.008 -1.09714,-2.12126 -1.09714,-4.82012 0,-2.69875 0.0274,-2.81903 1.16321,-5.11099 1.36681,-2.75802 3.51022,-4.93865 6.02476,-6.12938 2.38935,-1.13144 5.8079,-1.26147 8.50421,-0.32346 3.45229,1.20101 5.72951,3.33969 7.41178,6.96086 0.66691,1.43556 0.7451,1.91366 0.73379,4.48677 -0.01,2.24915 -0.13723,3.19358 -0.58136,4.31155 -1.24225,3.12706 -3.8334,5.55955 -7.42036,6.96599 -1.67923,0.65842 -5.61934,0.96966 -6.92174,0.54676 z m -24.54858,-51.42813 c -4.91308,-1.19769 -10.09247,-6.44771 -12.12408,-12.28942 -0.61435,-1.76653 -0.68058,-2.31255 -0.55913,-4.60961 0.345,-6.52529 4.37918,-12.88969 9.95994,-15.71302 4.32902,-2.19006 10.30761,-2.24736 14.5093,-0.13907 4.40035,2.20798 8.56877,7.75926 9.63769,12.83495 0.48263,2.29174 0.37254,4.79594 -0.33003,7.50725 -1.51475,5.84564 -6.60888,10.85654 -12.57988,12.37434 -1.95065,0.49585 -6.54508,0.51451 -8.51381,0.0346 z"
       id="path1" />
  </g>
</svg>
