<?xml version="1.0" encoding="UTF-8" standalone="no"?>
<!-- Created with Inkscape (http://www.inkscape.org/) -->

<svg
   version="1.1"
   id="svg1"
   width="296.22858"
   height="295.67999"
   viewBox="0 0 296.22858 295.67999"
   xmlns="http://www.w3.org/2000/svg"
   xmlns:svg="http://www.w3.org/2000/svg">
  <defs
     id="defs1" />
  <g
     id="g1">
    <path
       style="fill:#000000"
       d="m 147.62442,283.5105 c -8.4474,-7.07904 -12.39963,-10.13758 -24.25182,-18.76795 -14.5857,-10.62082 -13.15068,-9.70625 -30.331035,-19.33075 -5.88263,-3.29547 -7.67793,-4.35447 -21.80571,-12.86265 -15.03813,-9.05642 -23.4161,-15.15927 -27.10406,-19.74366 -1.89107,-2.35073 -4.26244,-6.23683 -5.55673,-9.10611 -3.92689,-8.70544 -3.969,-13.15432 -0.23188,-24.49959 5.00202,-15.18528 11.10581,-26.57563 20.95188,-39.0985 1.30472,-1.65943 3.37963,-4.31315 4.61092,-5.89715 1.23128,-1.584 4.34873,-5.53371 6.92766,-8.77714 12.95605,-16.29437 18.91108,-25.447725 22.17877,-34.090529 0.63947,-1.69135 1.27792,-3.046255 1.41877,-3.0109 0.14085,0.03535 0.33956,1.454783 0.44157,3.154285 0.21754,3.624214 1.46115,8.487049 3.20473,12.531304 2.909645,6.749 8.562155,14.01746 14.312095,18.40368 7.06809,5.39175 19.01527,11.85566 28.53319,15.43762 0.99067,0.37283 2.34838,0.95835 3.01714,1.30117 0.66877,0.34282 1.57082,0.65229 2.00457,0.68772 0.80753,0.066 1.35297,0.58708 1.0788,1.0307 -0.0869,0.14061 -1.12725,0.16727 -2.39784,0.0614 -1.80198,-0.15011 -2.70809,-0.0749 -4.5973,0.38185 -1.29414,0.31285 -2.87891,0.56881 -3.5217,0.56881 -1.57734,0 -9.60277,1.93059 -13.13185,3.15898 -10.25479,3.56946 -20.82792,12.15379 -27.527495,22.34959 -2.95784,4.50141 -6.3019,12.79751 -7.02065,17.41715 -0.1643,1.056 -0.50604,3.15428 -0.75941,4.66285 -0.79781,4.75009 -0.79204,7.24012 0.0261,11.25807 1.86342,9.15159 4.12288,13.97645 9.96534,21.28004 3.027105,3.78415 3.578715,4.62761 3.026435,4.62761 -0.81814,0 -14.278105,-9.07525 -18.466185,-12.45063 -3.99458,-3.21945 -9.85361,-9.1983 -11.98987,-12.23509 -4.09376,-5.81944 -6.70988,-12.56761 -7.67112,-19.78733 -0.62413,-4.68775 0.65801,-11.88973 3.32662,-18.68618 2.36336,-6.01903 4.37963,-9.5746 8.5338,-15.04882 2.48269,-3.2716 3.05415,-4.62624 1.9516,-4.62624 -0.72416,0 -4.97004,2.88052 -8.0607,5.46859 -3.63387,3.04294 -9.66767,9.07383 -11.36137,11.35588 -4.59785,6.19505 -7.42377,13.12872 -8.34003,20.46305 -0.37919,3.03533 -0.21887,5.18232 0.73848,9.88963 0.97724,4.80509 1.82676,7.33339 3.68647,10.97142 1.85139,3.62177 3.14568,5.42803 6.42889,8.97183 3.11879,3.36635 6.84931,6.45453 11.51152,9.52941 4.63273,3.05544 6.80601,4.28026 15.36,8.65664 3.62057,1.85236 7.94057,4.13456 9.6,5.07157 1.65943,0.93702 8.694845,4.7632 15.634275,8.50263 14.95941,8.06114 17.13763,9.35881 24.68572,14.70651 3.168,2.24448 7.22377,5.11355 9.01282,6.37571 l 3.25282,2.29485 4.56432,-3.12171 c 7.12692,-4.87436 17.56172,-11.79941 22.53004,-14.95205 7.8733,-4.996 20.64982,-12.29644 31.13143,-17.78836 10.9957,-5.76128 23.40758,-13.29216 27.89627,-16.92598 7.08647,-5.73687 12.24217,-13.91301 14.39265,-22.82449 0.63289,-2.62266 0.68601,-3.27264 0.56174,-6.8737 -0.11977,-3.47104 -0.24512,-4.31106 -0.98507,-6.60124 -2.70687,-8.3779 -8.83273,-16.64101 -17.19412,-23.19297 -1.99168,-1.56067 -8.02765,-5.58865 -8.37467,-5.58865 -0.41403,0 -0.31524,0.34204 1.28123,4.43614 5.17464,13.27024 6.5076,19.35304 6.54114,29.84958 0.0207,6.47812 -0.35658,9.1205 -2.03795,14.27299 -1.24879,3.8269 -2.35402,6.06878 -4.86294,9.86415 -5.38554,8.14696 -12.4734,15.07971 -20.23542,19.79259 -6.7197,4.08001 -19.90814,9.98135 -26.74286,11.96645 -3.73323,1.08429 -5.96886,1.54915 -11.65715,2.42391 -4.0374,0.62087 -5.54585,0.71814 -11.24571,0.72515 -6.49818,0.008 -6.6446,-0.005 -11.38286,-0.97779 -10.13894,-2.08246 -20.71153,-6.26515 -27.61999,-10.92694 -2.5579,-1.72605 -5.97512,-4.95522 -7.7834,-7.35507 -2.81271,-3.73289 -5.19531,-9.97647 -5.18649,-13.59116 0.008,-3.33191 1.73235,-8.36713 4.10033,-11.97416 2.6203,-3.99138 6.37786,-6.7931 11.39241,-8.49442 1.73231,-0.58774 2.38921,-0.65142 6.72,-0.65142 2.82906,0 5.64469,0.15197 6.85714,0.37009 1.13143,0.20354 2.54721,0.45358 3.14618,0.55564 l 1.08903,0.18556 -2.21472,1.56076 c -3.32026,2.33985 -4.7958,3.7824 -6.67433,6.52513 -2.03885,2.9768 -3.54784,6.15203 -4.42785,9.31711 -0.94244,3.38962 -0.90113,8.14547 0.10277,11.82964 1.35983,4.99044 3.92084,9.25135 6.64881,11.06208 3.52682,2.34097 10.84711,5.18759 16.41136,6.38186 3.13897,0.67372 11.60844,0.65941 15.26564,-0.0258 6.55079,-1.22733 13.67232,-3.21777 18.9274,-5.29015 6.54753,-2.58206 11.32557,-5.63832 15.78242,-10.0952 4.86274,-4.86276 7.7637,-9.68871 9.89933,-16.46816 l 1.03684,-3.29142 -0.009,-6.99429 c -0.009,-6.91539 -0.0189,-7.03386 -0.877,-10.50301 -2.1669,-8.7603 -5.09214,-14.15997 -11.66719,-21.53641 -4.82408,-5.41204 -9.81467,-9.57085 -15.26244,-12.71866 -4.54198,-2.62443 -13.9743,-6.84677 -24.75758,-11.08262 -13.1126,-5.15085 -26.25649,-12.30716 -31.86835,-17.35102 -5.84533,-5.2537 -9.20671,-10.42615 -11.61378,-17.87113 -1.5976,-4.941331 -1.79115,-6.225547 -1.64205,-10.895117 0.12325,-3.860172 0.18488,-4.221616 1.29251,-7.580013 1.3274,-4.02479 3.92854,-9.382382 6.21128,-12.793443 0.85813,-1.282285 3.00082,-4.182857 4.76154,-6.445714 10.84747,-13.941029 15.46489,-21.044042 18.81105,-28.937142 2.05772,-4.853853 4.04566,-11.981439 5.08728,-18.239999 0.3264,-1.961143 0.6866,-3.737976 0.80046,-3.948517 0.14637,-0.270671 0.63502,0.251568 1.66817,1.782857 0.80364,1.191113 2.58777,3.708517 3.96473,5.594231 4.28293,5.865339 9.97773,14.574783 12.82652,19.616433 5.00067,8.849962 6.64035,16.284546 4.77077,21.631466 -1.49172,4.266251 -3.73293,6.984973 -11.49664,13.946133 -7.12465,6.388147 -10.99947,11.376397 -14.75921,19.000252 -2.55956,5.190183 -3.37897,8.230453 -3.40053,12.617143 -0.0187,3.79505 0.435,5.52154 2.47021,9.40096 3.13154,5.96921 5.82798,9.05052 11.07103,12.65125 3.07647,2.1128 3.42993,1.81099 1.25231,-1.06936 -1.71237,-2.26496 -4.38132,-6.29245 -5.05017,-7.62079 -2.10449,-4.1795 -2.99731,-8.44312 -2.46858,-11.78864 0.66771,-4.2249 3.5099,-11.367978 6.1553,-15.469702 3.05978,-4.744205 8.27752,-10.347378 13.0223,-13.984239 5.56627,-4.266534 9.90202,-7.172886 10.22252,-6.852388 0.23772,0.237722 0.20609,0.500602 -0.12838,1.067029 -0.48388,0.819454 -2.0818,7.171816 -3.81136,15.151594 -1.94921,8.993243 -1.95351,15.904126 -0.0147,23.588566 2.71549,10.76265 6.98798,18.59911 15.55242,28.52572 3.53819,4.10094 10.30012,10.97789 10.79069,10.97426 0.30601,-0.002 0.35045,-0.3867 0.22193,-1.91972 -0.31483,-3.75532 -2.43691,-7.84214 -7.79305,-15.00827 -3.19942,-4.28061 -5.11488,-7.90906 -6.4135,-12.14913 -0.79267,-2.58809 -0.89461,-3.31736 -1.00582,-7.19506 -0.0983,-3.42722 -0.0264,-4.75345 0.34929,-6.44572 0.66242,-2.9837 1.88376,-6.32643 3.48432,-9.53636 1.84878,-3.707752 6.86966,-12.155308 8.00579,-13.469616 l 0.91908,-1.063208 0.32723,1.643555 c 0.56319,2.828677 2.48246,8.88165 4.16208,13.126279 2.96364,7.48953 7.79669,15.98529 11.88187,20.8865 3.20256,3.8423 8.66491,9.07789 15.101,14.47413 10.43529,8.74932 14.1636,12.81254 20.23815,22.05615 4.38395,6.67103 6.92056,11.73668 8.81364,17.601 2.31484,7.17083 3.1482,12.33761 2.65035,16.43213 -1.44314,11.8691 -8.58134,23.13343 -20.99489,33.13067 -3.78203,3.04585 -8.83779,6.59728 -16.05582,11.27844 -6.32881,4.10447 -7.7331,4.92518 -21.25715,12.42328 -13.9043,7.70893 -17.3562,9.96405 -31.58763,20.63617 -6.85668,5.14182 -10.55542,8.25988 -15.54744,13.10657 -2.0204,1.96158 -3.7204,3.55962 -3.77777,3.55118 -0.0574,-0.008 -1.21516,-0.94624 -2.57287,-2.08402 z m 13.67243,-67.63779 c 2.88025,-4.04669 4.85577,-9.73662 4.86711,-14.0183 0.005,-1.99884 -1.11345,-7.20874 -2.04116,-9.50551 -2.66085,-6.5876 -7.87912,-11.9532 -15.05416,-15.47916 -6.37429,-3.13246 -12.37388,-4.03233 -20.15018,-3.02232 -3.27411,0.42526 -7.48148,1.6978 -12.12911,3.66851 -1.11929,0.47461 -2.13103,0.82876 -2.24832,0.787 -0.28019,-0.0998 3.9593,-7.0628 5.56946,-9.1474 3.3625,-4.35328 7.19978,-7.7062 11.02531,-9.63366 4.69262,-2.36433 12.18911,-4.19773 17.16393,-4.19773 8.87636,0 20.17941,3.67158 26.61612,8.64573 4.60459,3.55834 8.76891,9.57369 11.08013,16.00525 1.64887,4.5884 2.51539,10.67688 1.78832,12.56545 -0.16349,0.42468 -0.41797,1.51244 -0.56551,2.41725 -0.85652,5.25288 -5.91247,10.9243 -14.56675,16.33996 -3.62173,2.2664 -11.39033,6.28922 -12.14532,6.28922 -0.30622,0 -0.0788,-0.49352 0.79013,-1.71429 z"
       id="path1" />
  </g>
</svg>
